<?xml version="1.0" standalone="no"?>
<!DOCTYPE svg PUBLIC "-//W3C//DTD SVG 20010904//EN"
 "http://www.w3.org/TR/2001/REC-SVG-20010904/DTD/svg10.dtd">
<svg version="1.0" xmlns="http://www.w3.org/2000/svg"
 width="512.000000pt" height="512.000000pt" viewBox="0 0 512.000000 512.000000"
 preserveAspectRatio="xMidYMid meet">
<metadata>
Created by potrace 1.14, written by Peter Selinger 2001-2017
</metadata>
<g transform="translate(0.000000,512.000000) scale(0.100000,-0.100000)"
fill="#000000" stroke="none">
<path d="M2965 4418 c-150 -54 -284 -280 -310 -525 -4 -32 -8 -69 -11 -83 -5
-32 -5 -296 1 -335 2 -16 6 -48 9 -70 27 -215 104 -411 197 -505 57 -57 147
-105 217 -114 35 -5 55 0 100 22 62 30 170 128 199 181 10 18 26 48 35 65 23
42 65 172 74 232 10 64 11 413 1 484 -5 30 -13 82 -18 115 -40 236 -161 446
-293 508 -63 30 -156 42 -201 25z"/>
<path d="M1927 4139 c-76 -18 -132 -62 -207 -164 -191 -259 -246 -649 -141
-1002 38 -127 105 -209 216 -263 79 -38 143 -52 235 -51 234 1 409 134 451
342 41 208 24 465 -44 633 -66 165 -146 287 -261 401 -97 96 -164 124 -249
104z"/>
<path d="M4267 3899 c-125 -29 -187 -101 -262 -304 -10 -28 -22 -54 -26 -60
-3 -5 -10 -26 -14 -45 -4 -19 -12 -46 -18 -60 -14 -34 -102 -349 -111 -397 -3
-13 -17 -69 -31 -125 -123 -477 -227 -702 -429 -923 -279 -305 -675 -487
-1041 -479 -109 2 -178 9 -194 18 -3 2 -24 7 -45 10 -68 11 -218 76 -301 131
-238 158 -347 353 -531 950 -15 50 -29 95 -30 100 -8 35 -63 198 -101 295 -48
126 -101 229 -168 330 l-43 65 -94 30 c-78 25 -109 30 -193 30 -119 0 -173
-20 -236 -87 -61 -64 -111 -175 -124 -272 -15 -106 -21 -193 -19 -244 3 -71
14 -209 19 -242 2 -14 6 -43 10 -65 3 -22 7 -51 10 -65 2 -14 7 -45 11 -70 3
-25 7 -54 9 -65 1 -11 6 -42 10 -70 4 -27 11 -70 17 -95 5 -25 12 -56 14 -70
22 -113 132 -341 242 -501 201 -291 505 -543 852 -706 164 -77 418 -157 560
-178 24 -4 47 -8 51 -10 3 -2 32 -7 65 -10 32 -4 88 -10 123 -14 69 -8 378 -7
426 2 17 4 53 9 80 12 70 8 91 12 205 39 292 69 635 243 895 454 236 192 483
486 643 769 151 264 290 650 326 903 3 19 10 67 15 105 63 424 -16 759 -206
876 -68 42 -262 62 -366 38z"/>
</g>
</svg>
